<svg xmlns="http://www.w3.org/2000/svg" viewBox="0 0 501.77 78.5"><defs><style>.cls-1{fill:#3b8659;}.cls-2{fill:#efad51;}.cls-3{fill:#ad2831;}.cls-4{fill:none;stroke:#000;stroke-miterlimit:10;}</style></defs><title>Fichier 1</title><g id="Calque_2" data-name="Calque 2"><g id="Background_1" data-name="Background 1"><polygon points="12.51 7.3 28.74 15.78 12.76 26.59 12.51 7.3"/><polygon points="47.98 24.13 65.04 30.78 50.34 43.28 47.98 24.13"/><polygon points="88.38 38.65 105.98 43.68 92.52 57.5 88.38 38.65"/><polygon points="130.37 49.7 148.34 53.18 136.12 68.11 130.37 49.7"/><polygon class="cls-1" points="175.12 57.5 193.33 59.41 182.45 75.35 175.12 57.5"/><polygon class="cls-2" points="224.22 61.35 242.53 61.68 233.07 78.5 224.22 61.35"/><polygon class="cls-3" points="275.81 61.35 294.03 59.6 286.54 77.38 275.81 61.35"/><polygon points="327.68 55.68 345.74 52.69 339.48 70.94 327.68 55.68"/><polygon points="377.17 45.85 394.91 41.29 390.27 60.02 377.17 45.85"/><polygon points="421.28 33.62 438.63 27.75 435.39 46.77 421.28 33.62"/><polygon points="466.68 16.9 483.45 9.52 481.9 28.76 466.68 16.9"/><path class="cls-4" d="M.27.42S213.6,138.08,501.56,1.52"/></g></g></svg>