<?xml version="1.0" encoding="UTF-8"?>
<svg width="320px" height="254px" viewBox="0 0 320 254" version="1.1" xmlns="http://www.w3.org/2000/svg" xmlns:xlink="http://www.w3.org/1999/xlink">
    <!-- Generator: Sketch 52.2 (67145) - http://www.bohemiancoding.com/sketch -->
    <title>jarawa_motif</title>
    <desc>Created with Sketch.</desc>
    <g id="Maquettes" stroke="none" stroke-width="1" fill="none" fill-rule="evenodd">
        <g id="Society_Jarawa_320px" transform="translate(0.000000, -182.000000)" fill="#9B965C">
            <g id="Group-3" transform="translate(-173.000000, 182.000000)">
                <g id="jarawa_motif">
                    <g id="JVUXKb">
                        <path d="M160.650037,174.789562 L150.68116,175.409227 L125.462278,177.917391 C126.515537,185.530408 126.441364,193.040148 128.874244,199.620392 C130.239031,203.323623 135.757516,205.521955 139.406836,208.384214 L137.508003,238.128095 C123.13324,239.824794 104.871802,240.798552 87.2185835,244.516537 C76.6859913,246.729624 67.0731465,253.250852 57.0449319,257.795056 C44.1239631,259.152415 31.217829,260.745837 18.2671909,261.631072 C15.7453026,261.793365 10.6570221,258.68029 10.8498724,257.647516 C11.6806121,251.952508 12.1256512,243.380486 15.730468,241.418216 C24.1729946,236.833106 33.5886085,234.304927 43.2042157,234.041262 C61.00578,234.041262 72.8734896,230.765894 69.5950348,208.959616 C68.8087991,203.795748 72.3097734,197.982708 73.837741,192.464746 L78.98536,193.040148 L78.98536,223.403693 L82.8126964,223.816803 C84.0231602,221.087473 84.9766554,218.252432 85.6609467,215.348059 C87.1444103,205.212123 88.2421735,195.031926 89.488283,184.866482 C80.2166349,186.843506 71.01916,189.292655 61.6733387,190.679523 C48.9155509,192.627039 36.039086,193.807351 20.4478825,195.636836 L19.3056155,180.514079 C40.4449732,177.637067 51.9418168,167.235561 48.5298503,144.440771 C48.0996459,141.489989 51.3929353,138.229375 52.1495017,134.9245 C52.7577219,132.268796 53.03958,127.326236 51.9121476,126.839357 C43.2042157,122.944325 34.1105832,119.890266 26.6042569,117.116531 L33.057324,157.542243 L39.3175408,150.489874 L39.0653519,150.298073 L33.8880636,169.95028 C31.2029943,164.653627 28.6959407,159.238942 25.7290133,154.104582 C24.9131083,152.629191 22.7620859,152.068542 19.8693317,150.312827 L15.5376177,177.592805 C13.1344065,177.873129 9.08455063,179.068196 8.58017297,178.271485 C5.88481752,173.290425 3.47286365,168.162745 1.35570477,162.912665 L1.50405114,162.912665 L6.04345005,92.0939013 L11.8437931,106.228146 L33.0128201,100.208551 C52.1049978,107.585506 59.2404582,94.572558 65.6490214,78.1957188 L71.9685767,96.4020428 L76.9085108,95.1922222 C76.1964483,88.6119787 75.2173622,82.0317352 74.9058349,75.4219839 C74.8019924,73.1351279 76.3892985,70.7745025 77.1755343,68.4433848 C79.845769,69.9187757 83.7176092,70.9367955 84.8747109,73.2384053 C86.2691668,76.0121402 84.7857031,80.0694653 85.6164427,83.3153253 C86.669702,87.4464199 88.7613858,91.326698 90.4080305,95.3102535 C93.7754931,91.6955457 99.0862931,88.5529631 100.154387,84.3480989 C102.765283,74.1383938 103.373503,63.4418096 104.782794,52.9665341 L109.144177,53.4239052 L111.250695,88.405424 L113.268206,87.918545 L118.579006,42.6830593 L125.625459,43.5092783 C125.625459,53.63046 124.512861,63.9286886 126.070498,73.8138078 C126.916072,79.2137385 132.286211,83.9202356 135.609169,88.9513186 L131.158778,103.277364 C121.812957,107.142889 106.681627,108.869096 104.174574,115.37557 C98.9082775,129.052444 100.080214,145.252236 99.1159624,160.434009 C99.0121199,162.086447 102.438921,165.4946 103.937219,165.34706 C106.499322,164.789184 108.616532,163.004046 109.589216,160.581548 C110.642475,155.919313 109.722728,150.81446 110.761152,146.137471 C113.372049,134.481882 116.695007,122.973833 119.661935,111.406768 L127.405615,113.354284 C126.263348,119.63945 124.779884,125.909861 124.305176,132.239288 C123.281586,146.225994 118.371321,162.071693 138.902459,167.294577 L147.803241,167.11753 L144.643463,162.411033 L164.833404,129.185229 C169.832677,137.890035 156.837535,156.907824 177.695034,155.742266 L180.765804,116.009988 L198.270676,112.277249 C198.804723,112.818226 199.32888,113.36412 199.843147,113.914933 C199.101416,119.359125 198.062991,124.77381 197.67729,130.24751 C195.63011,159.356973 195.674614,159.297958 165.041089,164.40281 C163.453783,164.668381 162.281847,167.515885 160.91706,169.153569 L160.650037,174.789562 Z M106.295927,221.308638 C107.77939,235.6937 114.722,236.888766 126.115002,226.310213 L106.281092,221.308638 C108.491453,210.685823 110.835326,200.077763 112.823167,189.395932 C113.29052,186.915795 113.027808,184.354195 112.0666,182.018978 C111.651231,181.104236 108.031579,180.63211 106.592619,181.369806 C98.478073,185.545162 98.3890652,214.890688 106.295927,221.308638 Z M90.6602193,115.169015 L87.2185835,114.977214 L83.3022394,168.283088 L87.9009768,168.489643 L90.6602193,115.169015 Z M68.4082639,169.669956 L71.2861834,169.374878 C73.021836,155.875051 75.0245119,142.404732 76.2261175,128.860643 C76.4189678,126.691818 73.0663399,124.213162 71.345522,121.882044 C70.3664359,124.124638 68.5862795,126.308217 68.5417756,128.595073 C68.2450829,142.227685 68.4082639,155.919313 68.4082639,169.669956 Z M58.6322381,143.776845 L56.4218772,143.776845 L53.5736269,172.620738 L58.6174035,172.93057 L58.6322381,143.776845 Z" id="Shape" fill-rule="nonzero"></path>
                        <path d="M220.448458,0 L236.766559,5.90156368 L235.134749,12.6145924 L222.035764,12.8211471 C219.736396,11.5670648 217.362854,9.11791589 215.122823,9.23594716 C160.383013,12.2014829 109.945247,28.7996308 69.016484,65.1385092 C58.3355454,74.6252728 38.8428324,73.6367609 35.9649128,91.9021005 C17.9704982,87.6972363 37.2555262,75.244937 30.7431206,68.5171544 C64.4622504,50.3255843 96.8165937,28.5783221 132.330715,15.0637413 C159.641281,4.67698922 190.927531,4.63272749 220.448458,0 Z" id="Path"></path>
                        <path d="M391.936861,96.682367 C393.539002,78.1809649 395.052135,63.7516417 395.986717,49.2928107 C397.677866,23.1783914 400.036573,21.5849692 428.088872,30.2160061 C411.859779,38.7880273 405.332539,51.2993423 409.041198,68.9155099 C410.302142,74.920351 408.922521,81.4415788 409.679087,87.6087129 C410.99937,98.320051 405.940759,100.887231 396.416922,99.618395 C376.716524,97.1249843 356.897449,95.4577926 337.330563,92.2414404 C334.170785,91.7250535 330.106095,85.14481 329.794567,81.1169928 C328.474285,64.518845 328.963828,47.773158 327.510033,31.1897641 C327.21334,27.7373493 321.576178,24.7570597 318.312558,21.5702153 C315.152781,25.0963996 309.278264,28.6520917 309.293099,32.1635221 C309.382107,51.2550806 310.910074,70.3318852 312.037507,90.8988346 C303.863622,93.7315852 299.457735,92.8020889 300.169797,78.4170274 C300.941198,62.1877273 299.472569,44.9699153 294.458462,29.6406036 C289.741047,15.2112804 293.746399,12.1277134 306.444849,12.1277134 L343.101237,12.1277134 C343.101237,33.3438348 342.196324,53.4386591 343.753961,73.2236514 C344.124827,78.003918 352.728916,82.0759969 357.550173,86.5021697 C359.449007,81.9874735 362.935146,77.4727772 362.964815,72.9433271 C363.053823,58.5730196 361.614864,44.1879581 361.318171,29.8028966 C361.318171,26.64556 363.454359,23.4439617 364.626295,20.2718713 C367.87508,22.0866021 373.4084,23.3701922 373.957281,25.7898333 C375.881395,33.5783337 376.591844,41.6144619 376.0638,49.6173967 C374.639675,65.6844038 373.200715,81.1465006 391.936861,96.682367 Z" id="Path"></path>
                        <path d="M529.928655,113.177238 C530.71489,101.226571 532.213189,89.2759046 531.975834,77.354746 C531.871992,72.3531708 528.133663,67.4253651 526.04198,62.4532977 C522.273982,66.7024235 516.800001,70.3909008 515.108852,75.3482143 C512.334775,83.5071261 512.646302,92.6545498 510.361768,101.03477 C509.353013,104.752755 505.199315,107.615014 502.469742,110.860874 C499.769838,107.555998 494.75573,104.251122 494.770565,100.961001 C494.859573,88.1546075 497.158941,75.3482143 497.322122,62.6008368 C497.322122,57.3041834 494.14751,51.9632682 492.411858,46.6518609 C487.694443,50.7534477 479.980432,54.1616007 478.808496,59.0894064 C475.218513,74.2269172 474.135585,89.9545844 468.112722,105.151111 C468.112722,89.4086898 468.631935,73.6515148 467.756691,57.9386015 C467.534171,53.8812764 462.920599,50.0747679 460.339373,46.1354741 C456.245013,49.1747794 449.39141,51.6534361 448.620009,55.3861752 C446.876585,64.1443108 446.770979,73.1470069 448.308482,81.9432117 C452.120984,103.764243 452.625361,103.690474 428.75643,102.982286 L434.927639,29.6848653 C460.45805,37.5044372 483.970949,45.5895795 507.988226,51.6534361 C518.372472,54.2501242 529.780308,52.0370378 540.624428,53.1288271 C550.415288,54.117339 555.459065,56.4927184 549.065336,69.1220646 C542.211734,82.7989385 540.505751,99.0429925 536.544903,114.165749 L529.928655,113.177238 Z" id="Path"></path>
                        <path d="M556.705174,221.825025 C544.080898,213.385789 537.167957,215.023473 538.784933,231.842929 C539.111295,235.295344 540.001373,238.983821 539.215137,242.170666 C538.013532,246.995194 535.550982,251.50989 533.622479,256.157372 C531.54563,251.908246 528.830891,247.836167 527.555113,243.350978 C526.45735,239.441193 528.000152,234.67568 526.501853,231.046218 C525.137067,227.741343 521.013038,223.005338 518.594992,223.270908 C515.183025,223.65451 511.177673,227.50528 509.353013,230.898679 C507.528353,234.292078 509.219501,239.898564 507.053644,242.849346 C504.086717,246.965686 499.191287,251.17055 494.488707,252.070539 C491.818472,252.586926 486.982381,247.127979 484.801689,243.380486 C482.843517,240.031349 484.5495,234.144539 482.220462,231.577359 C477.562386,226.369229 471.242831,222.725013 465.605669,218.298841 C463.602993,223.506971 461.288789,228.626577 459.671814,233.982246 C458.930082,236.534672 460.354207,239.706763 459.567971,242.229681 C458.038429,246.285713 456.224133,250.229807 454.138494,254.032809 C451.928133,250.388593 449.050214,246.98044 447.715096,243.041146 C446.379979,239.101853 447.715096,234.188801 445.93494,230.810156 C443.235036,225.80858 438.740141,221.766009 435.001813,217.310329 C430.699768,221.146345 426.368054,224.952854 422.125348,228.847886 C421.709978,229.216733 422.03634,230.323277 421.695143,230.839663 C417.808468,237.169091 413.862455,243.46901 409.931276,249.768929 C409.382395,242.982131 408.863182,236.195333 408.269797,229.408534 C407.73575,223.388939 407.112695,217.384098 406.593483,212.205476 C431.040965,212.205476 456.17084,212.530062 481.300715,212.116953 C509.723879,211.644828 538.132209,210.228452 566.555373,209.889112 C572.81559,209.815343 579.120311,212.4858 585.395362,213.902176 L556.705174,221.825025 Z" id="Path"></path>
                        <path d="M198.745384,104.516693 L296.223784,109.56253 L296.223784,177.578051 C289.741047,170.274866 284.163224,166.719174 282.976453,162.042185 C280.973777,154.207859 281.151793,145.650592 281.492989,137.432664 C282.190217,121.52795 278.00685,113.088714 259.626734,118.798477 C251.245164,121.409919 238.101676,118.031274 234.096324,122.973833 C229.779445,128.299994 234.615536,140.294923 233.502939,149.132514 C232.954057,153.558687 228.014123,157.37995 225.06203,161.466782 C221.620394,157.468473 216.279925,153.942289 215.137658,149.383331 C212.823455,140.029352 213.654194,129.908171 211.295487,120.5837 C210.538921,117.632918 203.878169,116.024742 199.887651,113.811656 C199.373384,113.260843 198.849227,112.714948 198.31518,112.173972 L198.745384,104.516693 Z" id="Path"></path>
                        <path d="M484.697846,133.050753 C483.318225,146.668611 481.730919,157.394703 481.271045,168.165057 C480.751833,181.871439 477.710732,191.490988 460.502554,187.758249 C456.052162,186.784491 450.934213,188.923807 446.083286,189.233639 C431.352492,190.133628 423.104434,184.910744 424.899425,168.430628 C425.952684,158.840587 425.359299,149.029237 424.973598,139.335919 C424.662071,131.250776 426.071361,126.160678 436.188584,126.839357 C446.305806,127.518037 449.42108,131.177007 447.136546,141.194911 C444.618818,151.335402 443.299503,161.733459 443.205367,172.17812 C443.205367,176.205938 449.139222,180.159985 452.298999,184.143541 C456.052162,180.676372 461.926679,177.79936 463.098615,173.624004 C465.569817,164.907372 466.572359,155.84386 466.065542,146.801397 C464.893606,127.916393 472.726294,126.573787 484.697846,133.050753 Z" id="Path"></path>
                        <path d="M193.894458,213.739883 L186.729328,172.17812 C215.671705,174.922348 243.64983,176.796094 271.375767,180.63211 C280.958942,181.959962 286.729616,188.009065 283.629177,201.110536 C280.528738,214.212008 282.961618,228.287237 282.961618,241.949357 L278.051353,242.362467 C276.879417,229.083948 276.15252,215.598875 274.283356,202.349865 C273.571293,197.27452 270.2335,192.568023 268.097312,187.684479 C264.492495,192.582777 258.425129,197.185997 257.713066,202.438388 C256.229603,215.067735 257.223523,227.992159 253.129163,241.078876 L247.106301,203.382638 L243.45698,179.997692 L222.970346,192.184421 C219.187514,180.248509 212.586101,175.453488 203.091933,188.451682 L199.160754,179.599337 C197.67729,182.06324 195.155402,184.512389 195.110898,186.976291 C194.962552,195.208973 195.748788,203.456408 196.164157,211.703843 C195.412536,212.392359 194.655969,213.071039 193.894458,213.739883 Z" id="Path"></path>
                        <path d="M375.307233,120.701731 C370.352465,133.331078 364.700468,145.783377 360.917636,158.737309 C359.923715,162.145462 365.279019,167.058514 366.732813,171.587964 C368.216728,175.895124 368.777639,180.463531 368.379458,184.999268 C368.231112,186.17958 361.436848,188.318897 359.389668,187.138584 C355.859024,185.102545 351.349295,180.868173 351.245452,177.430512 C350.72624,160.2127 350.266366,142.773579 352.639908,125.79183 C353.277798,121.218118 363.914232,118.031274 369.966764,114.210011 L375.307233,120.701731 Z" id="Path"></path>
                        <path d="M337.464075,245.519803 C337.464075,232.241285 336.944862,218.962767 338.05746,205.831787 C338.220641,203.987549 346.795061,200.992505 350.904256,201.715447 C363.068658,203.84001 374.951202,207.61701 389.474312,211.290734 L376.375327,249.341066 L368.587143,247.437811 C369.254702,241.255923 371.153535,234.896988 370.278292,228.936409 C369.225032,221.854533 365.8279,215.12675 363.365351,208.280936 C358.410582,213.474312 352.13553,217.959501 348.842241,224.038111 C345.237424,230.67737 344.39185,238.792021 342.300166,246.272252 L337.464075,245.519803 Z" id="Path"></path>
                        <path d="M202.750736,79.139969 C204.367712,76.8088513 206.029191,74.5072415 207.601663,72.146616 C209.797189,68.8712482 211.918542,65.5368647 214.084399,62.2467429 L228.473997,70.685979 L234.407852,52.7599793 L248.411749,49.2780568 C249.301827,59.0156368 250.874299,68.6499395 250.874299,78.3432579 C250.874299,80.6153599 245.637672,84.7317006 242.730083,84.820224 C226.219132,85.2775952 209.663677,84.820224 193.137891,84.5989154 L194.205985,80.0399575 L202.750736,79.139969 Z" id="Path"></path>
                        <path d="M313.461632,113.929687 C326.812805,110.683827 330.402787,115.405078 329.779733,127.562299 C329.06767,141.962114 330.536299,156.465207 330.50663,170.909284 C330.50663,174.686285 328.45945,178.448532 327.346852,182.225533 C324.290917,178.566563 318.994952,175.143656 318.579582,171.219116 C316.932937,155.388172 316.873598,139.409688 315.998355,123.49022 C315.879678,120.805009 314.663238,118.193567 313.461632,113.929687 Z" id="Path"></path>
                        <path d="M391.38798,192.169667 C391.38798,168.224073 390.957775,151.847234 391.684673,135.52941 C391.877523,131.250776 395.615851,127.134436 397.737205,122.929572 C398.953645,127.045912 401.000825,131.117991 401.238179,135.293347 C401.965076,148.439081 402.84032,161.673337 401.905738,174.760055 C401.534872,179.673106 396.372418,184.246818 391.38798,192.169667 Z" id="Path"></path>
                        <polygon id="Path" points="306.964061 243.439502 302.51367 192.169667 319.24714 194.412262 309.87165 243.73458"></polygon>
                        <polygon id="Path" points="275.203103 38.7290117 286.892797 86.8267557 268.527517 86.8267557 272.191672 39.0683516"></polygon>
                        <path d="M160.650037,174.789562 L160.961564,169.065046 C169.862346,172.915816 176.597271,177.002649 171.271637,189.130362 C168.304709,195.754867 169.283795,204.061318 168.46789,211.600566 L161.599453,211.95466 L160.650037,174.789562 Z" id="Path"></path>
                        <path d="M203.240279,203.84001 C204.204531,207.794057 205.198451,211.748105 206.207207,215.643137 C210.138385,232.049484 205.109444,238.747759 187.011186,232.123254 L193.953797,213.666113 C194.715308,212.997269 195.466929,212.318589 196.208661,211.630074 L203.240279,203.84001 Z" id="Path"></path>
                        <polygon id="Path" points="224.45381 228.095436 215.449185 199.000727 223.934598 197.112227 228.384989 227.151186"></polygon>
                        <path d="M203.240279,203.84001 L196.149323,211.689089 C195.719118,203.441654 194.947717,195.194219 195.096064,186.961537 C195.096064,184.468127 197.721794,182.018978 199.145919,179.584583 L203.077098,188.436928 L203.240279,203.84001 Z" id="Path"></path>
                        <path d="M198.745384,104.516693 L198.344849,112.20348 L180.839977,115.936219 C181.492701,103.897029 188.568823,101.905251 198.745384,104.516693 Z" id="Path"></path>
                        <polygon id="Path" points="254.582958 163.178236 253.292344 139.763782 257.416373 139.335919 261.481064 162.366771"></polygon>
                        <polygon id="Path" points="235.134749 12.6588541 234.318844 33.0044949 234.200167 46.7698922 234.333678 52.6714559 228.399824 70.5974556 214.010226 62.1582195 221.961591 12.7768854"></polygon>
                        <path d="M202.750736,79.139969 L194.131812,80.0399575 C181.121836,52.9222723 183.450874,30.4963303 202.750736,17.1883042 L202.750736,79.139969 Z" id="Path"></path>
                        <path d="M233.888639,46.7698922 L234.630371,33.0192488 L233.888639,46.7698922 Z" id="Path"></path>
                    </g>
                </g>
            </g>
        </g>
    </g>
</svg>